<svg width="29" height="30" viewBox="0 0 29 30" fill="none" xmlns="http://www.w3.org/2000/svg">
<path d="M13.9125 20.2875C15.6625 20.2875 17.15 19.725 18.375 18.6C19.6 17.475 20.2125 16.1125 20.2125 14.5125C20.2125 13.0875 19.7563 11.8813 18.8438 10.8938C17.9312 9.90625 16.825 9.4125 15.525 9.4125C14.35 9.4125 13.3563 9.7875 12.5438 10.5375C11.7312 11.2875 11.325 12.2125 11.325 13.3125C11.325 13.7875 11.4188 14.25 11.6063 14.7C11.7938 15.15 12.0625 15.5625 12.4125 15.9375L14.55 13.8C14.475 13.75 14.4188 13.6875 14.3813 13.6125C14.3438 13.5375 14.325 13.45 14.325 13.35C14.325 13.075 14.4375 12.8563 14.6625 12.6938C14.8875 12.5313 15.175 12.45 15.525 12.45C16.025 12.45 16.4375 12.6563 16.7625 13.0688C17.0875 13.4813 17.25 13.975 17.25 14.55C17.25 15.325 16.9312 15.9812 16.2938 16.5187C15.6562 17.0562 14.875 17.325 13.95 17.325C12.775 17.325 11.7812 16.85 10.9688 15.9C10.1562 14.95 9.75 13.7875 9.75 12.4125C9.75 11.6875 9.8875 10.9938 10.1625 10.3313C10.4375 9.66875 10.825 9.0875 11.325 8.5875L9.1875 6.45C8.3875 7.225 7.775 8.125 7.35 9.15C6.925 10.175 6.7125 11.25 6.7125 12.375C6.7125 14.575 7.4125 16.4438 8.8125 17.9813C10.2125 19.5188 11.9125 20.2875 13.9125 20.2875ZM4.5 30V23.55C3.075 22.25 1.96875 20.7313 1.18125 18.9938C0.39375 17.2563 0 15.425 0 13.5C0 9.75 1.3125 6.5625 3.9375 3.9375C6.5625 1.3125 9.75 0 13.5 0C16.625 0 19.3938 0.91875 21.8063 2.75625C24.2188 4.59375 25.7875 6.9875 26.5125 9.9375L28.4625 17.625C28.5875 18.1 28.5 18.5312 28.2 18.9188C27.9 19.3062 27.5 19.5 27 19.5H24V24C24 24.825 23.7063 25.5312 23.1188 26.1188C22.5312 26.7063 21.825 27 21 27H18V30H4.5Z" fill="white"/>
</svg>
