<svg width="69" height="69" viewBox="0 0 69 69" fill="none" xmlns="http://www.w3.org/2000/svg">
<mask id="mask0_4231_4127" style="mask-type:alpha" maskUnits="userSpaceOnUse" x="0" y="0" width="69" height="69">
<rect width="69" height="69" fill="#D9D9D9"/>
</mask>
<g mask="url(#mask0_4231_4127)">
<path d="M31.625 62.4594L11.5 50.8875C10.5896 50.3604 9.88281 49.6656 9.37969 48.8031C8.87656 47.9406 8.625 46.9823 8.625 45.9281V23.0719C8.625 22.0177 8.87656 21.0594 9.37969 20.1969C9.88281 19.3344 10.5896 18.6396 11.5 18.1125L31.625 6.54063C32.5354 6.01354 33.4937 5.75 34.5 5.75C35.5063 5.75 36.4646 6.01354 37.375 6.54063L57.5 18.1125C58.4104 18.6396 59.1172 19.3344 59.6203 20.1969C60.1234 21.0594 60.375 22.0177 60.375 23.0719V45.9281C60.375 46.9823 60.1234 47.9406 59.6203 48.8031C59.1172 49.6656 58.4104 50.3604 57.5 50.8875L37.375 62.4594C36.4646 62.9865 35.5063 63.25 34.5 63.25C33.4937 63.25 32.5354 62.9865 31.625 62.4594ZM31.625 36.1531V55.8469L34.5 57.5L37.375 55.8469V36.1531L54.625 26.1625V23.1438L51.5344 21.3469L34.5 31.1938L17.4656 21.3469L14.375 23.1438V26.1625L31.625 36.1531Z" fill="#C92020"/>
</g>
</svg>
