<svg width="54" height="54" viewBox="0 0 54 54" fill="none" xmlns="http://www.w3.org/2000/svg">
<rect width="54" height="54" rx="12" fill="white"/>
<path d="M43.6163 37.55C43.6163 38.15 43.483 38.7667 43.1997 39.3667C42.9163 39.9667 42.5497 40.5333 42.0663 41.0667C41.2497 41.9667 40.3497 42.6167 39.333 43.0333C38.333 43.45 37.2497 43.6667 36.083 43.6667C34.383 43.6667 32.5663 43.2667 30.6497 42.45C28.733 41.6333 26.8163 40.5333 24.9163 39.15C22.9997 37.75 21.183 36.2 19.4497 34.4833C17.733 32.75 16.183 30.9333 14.7997 29.0333C13.433 27.1333 12.333 25.2333 11.533 23.35C10.733 21.45 10.333 19.6333 10.333 17.9C10.333 16.7667 10.533 15.6833 10.933 14.6833C11.333 13.6667 11.9663 12.7333 12.8497 11.9C13.9163 10.85 15.083 10.3333 16.3163 10.3333C16.783 10.3333 17.2497 10.4333 17.6663 10.6333C18.0997 10.8333 18.483 11.1333 18.783 11.5667L22.6497 17.0167C22.9497 17.4333 23.1663 17.8167 23.3163 18.1833C23.4663 18.5333 23.5497 18.8833 23.5497 19.2C23.5497 19.6 23.433 20 23.1997 20.3833C22.983 20.7667 22.6663 21.1667 22.2663 21.5667L20.9997 22.8833C20.8163 23.0667 20.733 23.2833 20.733 23.55C20.733 23.6833 20.7497 23.8 20.783 23.9333C20.833 24.0667 20.883 24.1667 20.9163 24.2667C21.2163 24.8167 21.733 25.5333 22.4663 26.4C23.2163 27.2667 24.0163 28.15 24.883 29.0333C25.783 29.9167 26.6497 30.7333 27.533 31.4833C28.3997 32.2167 29.1163 32.7167 29.683 33.0167C29.7663 33.05 29.8663 33.1 29.983 33.15C30.1163 33.2 30.2497 33.2167 30.3997 33.2167C30.683 33.2167 30.8997 33.1167 31.083 32.9333L32.3497 31.6833C32.7663 31.2667 33.1663 30.95 33.5497 30.75C33.933 30.5167 34.3163 30.4 34.733 30.4C35.0497 30.4 35.383 30.4667 35.7497 30.6167C36.1163 30.7667 36.4997 30.9833 36.9163 31.2667L42.433 35.1833C42.8663 35.4833 43.1663 35.8333 43.3497 36.25C43.5163 36.6667 43.6163 37.0833 43.6163 37.55Z" stroke="#9F70FC" stroke-width="2.5" stroke-miterlimit="10"/>
<path d="M43.6163 37.55C43.6163 38.15 43.483 38.7667 43.1997 39.3667C42.9163 39.9667 42.5497 40.5333 42.0663 41.0667C41.2497 41.9667 40.3497 42.6167 39.333 43.0333C38.333 43.45 37.2497 43.6667 36.083 43.6667C34.383 43.6667 32.5663 43.2667 30.6497 42.45C28.733 41.6333 26.8163 40.5333 24.9163 39.15C22.9997 37.75 21.183 36.2 19.4497 34.4833C17.733 32.75 16.183 30.9333 14.7997 29.0333C13.433 27.1333 12.333 25.2333 11.533 23.35C10.733 21.45 10.333 19.6333 10.333 17.9C10.333 16.7667 10.533 15.6833 10.933 14.6833C11.333 13.6667 11.9663 12.7333 12.8497 11.9C13.9163 10.85 15.083 10.3333 16.3163 10.3333C16.783 10.3333 17.2497 10.4333 17.6663 10.6333C18.0997 10.8333 18.483 11.1333 18.783 11.5667L22.6497 17.0167C22.9497 17.4333 23.1663 17.8167 23.3163 18.1833C23.4663 18.5333 23.5497 18.8833 23.5497 19.2C23.5497 19.6 23.433 20 23.1997 20.3833C22.983 20.7667 22.6663 21.1667 22.2663 21.5667L20.9997 22.8833C20.8163 23.0667 20.733 23.2833 20.733 23.55C20.733 23.6833 20.7497 23.8 20.783 23.9333C20.833 24.0667 20.883 24.1667 20.9163 24.2667C21.2163 24.8167 21.733 25.5333 22.4663 26.4C23.2163 27.2667 24.0163 28.15 24.883 29.0333C25.783 29.9167 26.6497 30.7333 27.533 31.4833C28.3997 32.2167 29.1163 32.7167 29.683 33.0167C29.7663 33.05 29.8663 33.1 29.983 33.15C30.1163 33.2 30.2497 33.2167 30.3997 33.2167C30.683 33.2167 30.8997 33.1167 31.083 32.9333L32.3497 31.6833C32.7663 31.2667 33.1663 30.95 33.5497 30.75C33.933 30.5167 34.3163 30.4 34.733 30.4C35.0497 30.4 35.383 30.4667 35.7497 30.6167C36.1163 30.7667 36.4997 30.9833 36.9163 31.2667L42.433 35.1833C42.8663 35.4833 43.1663 35.8333 43.3497 36.25C43.5163 36.6667 43.6163 37.0833 43.6163 37.55Z" stroke="url(#paint0_linear_2559_21709)" stroke-width="2.5" stroke-miterlimit="10"/>
<defs>
<linearGradient id="paint0_linear_2559_21709" x1="10.333" y1="27" x2="43.6163" y2="27" gradientUnits="userSpaceOnUse">
<stop stop-color="#FA8B69"/>
<stop offset="1" stop-color="#FF2E27"/>
</linearGradient>
</defs>
</svg>
