<svg width="40" height="40" viewBox="0 0 40 40" fill="none" xmlns="http://www.w3.org/2000/svg">
<circle cx="20" cy="20" r="20" fill="#C92020"/>
<mask id="mask0_2307_14375" style="mask-type:alpha" maskUnits="userSpaceOnUse" x="8" y="8" width="24" height="25">
<rect x="8" y="8.625" width="24" height="24" fill="#D9D9D9"/>
</mask>
<g mask="url(#mask0_2307_14375)">
<path d="M11 27.625C10.45 27.625 9.97917 27.4292 9.5875 27.0375C9.19583 26.6458 9 26.175 9 25.625V15.625C9 15.075 9.19583 14.6042 9.5875 14.2125C9.97917 13.8208 10.45 13.625 11 13.625H21C21.55 13.625 22.0208 13.8208 22.4125 14.2125C22.8042 14.6042 23 15.075 23 15.625V25.625C23 26.175 22.8042 26.6458 22.4125 27.0375C22.0208 27.4292 21.55 27.625 21 27.625H11ZM25.2875 27.3375C25.0958 27.1458 25 26.9083 25 26.625V14.625C25 14.3417 25.0958 14.1042 25.2875 13.9125C25.4792 13.7208 25.7167 13.625 26 13.625C26.2833 13.625 26.5208 13.7208 26.7125 13.9125C26.9042 14.1042 27 14.3417 27 14.625V26.625C27 26.9083 26.9042 27.1458 26.7125 27.3375C26.5208 27.5292 26.2833 27.625 26 27.625C25.7167 27.625 25.4792 27.5292 25.2875 27.3375ZM29.2875 27.3375C29.0958 27.1458 29 26.9083 29 26.625V14.625C29 14.3417 29.0958 14.1042 29.2875 13.9125C29.4792 13.7208 29.7167 13.625 30 13.625C30.2833 13.625 30.5208 13.7208 30.7125 13.9125C30.9042 14.1042 31 14.3417 31 14.625V26.625C31 26.9083 30.9042 27.1458 30.7125 27.3375C30.5208 27.5292 30.2833 27.625 30 27.625C29.7167 27.625 29.4792 27.5292 29.2875 27.3375Z" fill="white"/>
</g>
</svg>
