<svg width="36" height="36" viewBox="0 0 36 36" fill="none" xmlns="http://www.w3.org/2000/svg">
<mask id="mask0_130_1038" style="mask-type:alpha" maskUnits="userSpaceOnUse" x="0" y="0" width="36" height="36">
<rect width="36" height="36" fill="#D9D9D9"/>
</mask>
<g mask="url(#mask0_130_1038)">
<path d="M27 10.5H9V4.5H27V10.5ZM27 18.75C27.425 18.75 27.7812 18.6063 28.0687 18.3188C28.3562 18.0313 28.5 17.675 28.5 17.25C28.5 16.825 28.3562 16.4688 28.0687 16.1812C27.7812 15.8938 27.425 15.75 27 15.75C26.575 15.75 26.2188 15.8938 25.9313 16.1812C25.6438 16.4688 25.5 16.825 25.5 17.25C25.5 17.675 25.6438 18.0313 25.9313 18.3188C26.2188 18.6063 26.575 18.75 27 18.75ZM24 28.5V22.5H12V28.5H24ZM27 31.5H9V25.5H3V16.5C3 15.225 3.4375 14.1562 4.3125 13.2938C5.1875 12.4313 6.25 12 7.5 12H28.5C29.775 12 30.8438 12.4313 31.7063 13.2938C32.5688 14.1562 33 15.225 33 16.5V25.5H27V31.5Z" fill="black"/>
</g>
</svg>
