<svg width="36" height="36" viewBox="0 0 36 36" fill="none" xmlns="http://www.w3.org/2000/svg">
<mask id="mask0_130_991" style="mask-type:alpha" maskUnits="userSpaceOnUse" x="0" y="0" width="36" height="36">
<rect width="36" height="36" fill="#D9D9D9"/>
</mask>
<g mask="url(#mask0_130_991)">
<path d="M9 31.4996C7.875 31.4996 6.7625 31.2246 5.6625 30.6746C4.5625 30.1246 3.675 29.3996 3 28.4996C3.65 28.4996 4.3125 28.2433 4.9875 27.7308C5.6625 27.2183 6 26.4746 6 25.4996C6 24.2496 6.4375 23.1871 7.3125 22.3121C8.1875 21.4371 9.25 20.9996 10.5 20.9996C11.75 20.9996 12.8125 21.4371 13.6875 22.3121C14.5625 23.1871 15 24.2496 15 25.4996C15 27.1496 14.4125 28.5621 13.2375 29.7371C12.0625 30.9121 10.65 31.4996 9 31.4996ZM17.625 22.4996L13.5 18.3746L26.925 4.94958C27.2 4.67458 27.5438 4.53083 27.9563 4.51833C28.3688 4.50583 28.725 4.64958 29.025 4.94958L31.05 6.97458C31.35 7.27458 31.5 7.62458 31.5 8.02458C31.5 8.42458 31.35 8.77458 31.05 9.07458L17.625 22.4996Z" fill="#C92020"/>
</g>
</svg>
