<svg width="36" height="36" viewBox="0 0 36 36" fill="none" xmlns="http://www.w3.org/2000/svg">
<mask id="mask0_130_971" style="mask-type:alpha" maskUnits="userSpaceOnUse" x="0" y="0" width="36" height="36">
<rect width="36" height="36" fill="#D9D9D9"/>
</mask>
<g mask="url(#mask0_130_971)">
<path d="M16.6646 20.553L16.7711 21.5655C16.7866 21.7463 16.8583 21.8943 16.986 22.0095C17.114 22.125 17.2684 22.1828 17.4491 22.1828H18.5509C18.7316 22.1828 18.886 22.125 19.014 22.0095C19.1418 21.8943 19.2134 21.7463 19.2289 21.5655L19.3354 20.553C19.6316 20.478 19.9091 20.3689 20.1679 20.2256C20.4264 20.0821 20.647 19.9046 20.8298 19.6931L21.7384 20.1086C21.8941 20.1836 22.0548 20.1985 22.2203 20.1532C22.3855 20.108 22.5134 20.0075 22.6039 19.8517L23.1548 18.903C23.2453 18.7473 23.2741 18.589 23.2414 18.4283C23.2086 18.2678 23.1221 18.1299 22.9819 18.0146L22.1655 17.4172C22.273 17.1115 22.3268 16.8057 22.3268 16.5C22.3268 16.1943 22.273 15.8885 22.1655 15.5827L22.9819 14.9854C23.1221 14.8701 23.2086 14.7323 23.2414 14.5718C23.2741 14.411 23.2453 14.2527 23.1548 14.097L22.6039 13.1483C22.5134 12.9925 22.3855 12.892 22.2203 12.8468C22.0548 12.8015 21.8941 12.8164 21.7384 12.8914L20.8298 13.3069C20.647 13.0954 20.4264 12.9179 20.1679 12.7744C19.9091 12.6311 19.6316 12.522 19.3354 12.447L19.2289 11.4345C19.2134 11.2537 19.1418 11.1058 19.014 10.9905C18.886 10.875 18.7316 10.8173 18.5509 10.8173H17.4491C17.2684 10.8173 17.114 10.875 16.986 10.9905C16.8583 11.1058 16.7866 11.2537 16.7711 11.4345L16.6646 12.447C16.3684 12.522 16.0909 12.6311 15.8321 12.7744C15.5736 12.9179 15.353 13.0954 15.1703 13.3069L14.2616 12.8914C14.1059 12.8164 13.9453 12.8015 13.7797 12.8468C13.6145 12.892 13.4866 12.9925 13.3961 13.1483L12.8453 14.097C12.7548 14.2527 12.7259 14.411 12.7586 14.5718C12.7914 14.7323 12.8779 14.8701 13.0181 14.9854L13.8345 15.5827C13.727 15.8885 13.6733 16.1943 13.6733 16.5C13.6733 16.8057 13.727 17.1115 13.8345 17.4172L13.0181 18.0146C12.8779 18.1299 12.7914 18.2678 12.7586 18.4283C12.7259 18.589 12.7548 18.7473 12.8453 18.903L13.3961 19.8517C13.4866 20.0075 13.6145 20.108 13.7797 20.1532C13.9453 20.1985 14.1059 20.1836 14.2616 20.1086L15.1703 19.6931C15.353 19.9046 15.5736 20.0821 15.8321 20.2256C16.0909 20.3689 16.3684 20.478 16.6646 20.553ZM16.2116 18.2884C15.7211 17.7981 15.4759 17.202 15.4759 16.5C15.4759 15.798 15.7211 15.2019 16.2116 14.7116C16.7019 14.2211 17.298 13.9759 18 13.9759C18.702 13.9759 19.2981 14.2211 19.7884 14.7116C20.2789 15.2019 20.5241 15.798 20.5241 16.5C20.5241 17.202 20.2789 17.7981 19.7884 18.2884C19.2981 18.7789 18.702 19.0241 18 19.0241C17.298 19.0241 16.7019 18.7789 16.2116 18.2884ZM10.875 32.25C10.5558 32.25 10.2885 32.1423 10.0733 31.9268C9.85775 31.7115 9.75 31.4443 9.75 31.125V26.2039C8.325 24.9039 7.21875 23.414 6.43125 21.7342C5.64375 20.0543 5.25 18.3048 5.25 16.4858C5.25 12.9473 6.49037 9.94 8.97113 7.464C11.4519 4.988 14.4615 3.75 18 3.75C20.9135 3.75 23.5188 4.62075 25.8158 6.36225C28.113 8.1035 29.6049 10.3626 30.2914 13.1396L32.0393 20.0625C32.1548 20.4895 32.0769 20.8775 31.8056 21.2265C31.5346 21.5755 31.1731 21.75 30.7211 21.75H27.75V26.5384C27.75 27.2864 27.4851 27.9254 26.9554 28.4554C26.4254 28.9851 25.7864 29.25 25.0384 29.25H21.75V31.125C21.75 31.4443 21.6423 31.7115 21.4268 31.9268C21.2115 32.1423 20.9443 32.25 20.625 32.25H10.875Z" fill="#C92020"/>
</g>
</svg>
