<svg width="36" height="36" viewBox="0 0 36 36" fill="none" xmlns="http://www.w3.org/2000/svg">
<mask id="mask0_148_170" style="mask-type:alpha" maskUnits="userSpaceOnUse" x="0" y="0" width="36" height="36">
<rect width="36" height="36" fill="#D9D9D9"/>
</mask>
<g mask="url(#mask0_148_170)">
<path d="M7.06162 32.25C6.61937 32.25 6.26025 32.0755 5.98425 31.7265C5.70825 31.3775 5.628 30.9895 5.7435 30.5625L11.1375 8.91337L11.0625 7.86338C11.028 7.35188 10.8477 6.9135 10.5217 6.54825C10.1957 6.18275 9.78075 6 9.27675 6C8.773 6 8.351 6.17138 8.01075 6.51413C7.67025 6.85688 7.5 7.28163 7.5 7.78837V9.24525C7.5 9.564 7.39212 9.83112 7.17637 10.0466C6.96062 10.2624 6.69338 10.3702 6.37463 10.3702C6.05563 10.3702 5.7885 10.2624 5.57325 10.0466C5.35775 9.83112 5.25 9.564 5.25 9.24525V7.78837C5.25 6.66663 5.64263 5.71312 6.42788 4.92787C7.21312 4.14262 8.16663 3.75 9.28837 3.75H25.3586C26.4316 3.75 27.3537 4.11475 28.125 4.84425C28.8962 5.57375 29.3155 6.47725 29.3827 7.55475L30.675 30.819C30.7 31.2052 30.5762 31.5403 30.3037 31.824C30.0315 32.108 29.7032 32.25 29.319 32.25H7.06162ZM8.2845 30H12.4357L11.5931 16.3785L8.2845 30ZM20.4941 26.4229C20.7814 26.4229 21.0216 26.3263 21.2149 26.133C21.4081 25.9398 21.5047 25.6999 21.5047 25.4134V20.553C22.0778 20.4125 22.5551 20.1029 22.9369 19.6241C23.3186 19.1451 23.5095 18.5939 23.5095 17.9704V13.1933C23.5095 13.015 23.4417 12.8581 23.3062 12.7226C23.1707 12.5871 23.0126 12.5194 22.8319 12.5194C22.6509 12.5194 22.495 12.5871 22.3642 12.7226C22.2335 12.8581 22.1681 13.0162 22.1681 13.197V17.5759H21.1586V13.1936C21.1586 13.0151 21.0922 12.8581 20.9595 12.7226C20.827 12.5871 20.6722 12.5194 20.4952 12.5194C20.3182 12.5194 20.1634 12.5871 20.0306 12.7226C19.8981 12.8581 19.8319 13.0162 19.8319 13.197V17.5759H18.822V13.1936C18.822 13.0151 18.7557 12.8581 18.6232 12.7226C18.4905 12.5871 18.3356 12.5194 18.1586 12.5194C17.9816 12.5194 17.8269 12.5871 17.6944 12.7226C17.5616 12.8581 17.4952 13.0162 17.4952 13.197V17.9719C17.4952 18.5951 17.6837 19.146 18.0607 19.6245C18.4375 20.103 18.9172 20.4125 19.5 20.553V25.428C19.5 25.7155 19.5939 25.9532 19.7816 26.1413C19.9694 26.329 20.2069 26.4229 20.4941 26.4229Z" fill="#C92020"/>
</g>
</svg>
