<svg width="33" height="23" viewBox="0 0 33 23" fill="none" xmlns="http://www.w3.org/2000/svg">
<path d="M21.2812 16.0312C22.5938 14.7188 23.25 13.125 23.25 11.25C23.25 9.375 22.5938 7.78125 21.2812 6.46875C19.9688 5.15625 18.375 4.5 16.5 4.5C14.625 4.5 13.0312 5.15625 11.7188 6.46875C10.4062 7.78125 9.75 9.375 9.75 11.25C9.75 13.125 10.4062 14.7188 11.7188 16.0312C13.0312 17.3438 14.625 18 16.5 18C18.375 18 19.9688 17.3438 21.2812 16.0312ZM13.6313 14.1188C12.8438 13.3313 12.45 12.375 12.45 11.25C12.45 10.125 12.8438 9.16875 13.6313 8.38125C14.4188 7.59375 15.375 7.2 16.5 7.2C17.625 7.2 18.5813 7.59375 19.3688 8.38125C20.1562 9.16875 20.55 10.125 20.55 11.25C20.55 12.375 20.1562 13.3313 19.3688 14.1188C18.5813 14.9063 17.625 15.3 16.5 15.3C15.375 15.3 14.4188 14.9063 13.6313 14.1188ZM6.525 19.4438C3.525 17.4062 1.35 14.675 0 11.25C1.35 7.825 3.525 5.09375 6.525 3.05625C9.525 1.01875 12.85 0 16.5 0C20.15 0 23.475 1.01875 26.475 3.05625C29.475 5.09375 31.65 7.825 33 11.25C31.65 14.675 29.475 17.4062 26.475 19.4438C23.475 21.4813 20.15 22.5 16.5 22.5C12.85 22.5 9.525 21.4813 6.525 19.4438Z" fill="white"/>
</svg>
